DBRep_DrawableShape

CASCADE Topology V1, (c) Matra-Datavision
Locations 6
1
              1               0               0               0 
              0 1.11022302462516e-16              -1               0 
              0               1 6.1257422745431e-17               0 
1
6.1257422745431e-17              -1               0               0 
              1 1.11022302462516e-16               0               0 
              0               0               1               0 
1
              1               0               0           6.505 
              0               1               0               0 
              0               0               1               0 
1
              1               0               0               0 
              0               1               0               0 
              0               0               1            -0.2 
2  1 1 2 1 3 1 4 1 0
2  4 -1 3 -1 2 -1 1 -1 0
Curve2ds 8
1 0 0 1 0 
1 0 0 1 0 
1 4 0 0 1 
1 11 0 0 1 
1 11 0 0 1 
1 0 1 1 0 
1 0 1 1 0 
1 4 0 0 1 
Curves 7
7 0 0  5 36 8  -1.4336500000000001 0.64996799999999999 -6.5049999999999999  -1.4336605 0.64972076670000001 -6.5049999999999999  -1.4336178749999999 0.64945686670000002 -6.5049999999999999  -1.4336992083 0.6492221333 -6.5049999999999999  -1.4336128333 0.64895823330000002 -6.5049999999999999  -1.43364 0.64871100000000004 -6.5049999999999999  -1.4334536667 0.61781496670000002 -6.5049999999999999  -1.4338860833000002 0.58679560000000008 -6.5049999999999999  -1.4337184999999999 0.55586383750000001 -6.5049999999999999  -1.4339196667 0.52489728330000007 -6.5049999999999999  -1.4339999999999999 0.49393500000000001 -6.5049999999999999  -1.4203730000000001 0.44235658329999999 -6.5049999999999999  -1.4019439167000001 0.39482056250000003 -6.5049999999999999  -1.3786762917000002 0.35127068750000001 -6.5049999999999999  -1.3506378333 0.31178091669999997 -6.5049999999999999  -1.3177400000000001 0.27629500000000001 -6.5049999999999999  -1.2811151667 0.23680705000000002 -6.5049999999999999  -1.238647625 0.2022839958 -6.5049999999999999  -1.1916550832999999 0.172336775 -6.5049999999999999  -1.1423406667 0.1464565333 -6.5049999999999999  -1.0919700000000001 0.124249 -6.5049999999999999  -1.0352280833 0.099204750000000008 -6.5049999999999999  -0.97734481250000005 0.078821291700000004 -6.5049999999999999  -0.91855039580000009 0.062216593699999996 -6.5049999999999999  -0.85908024999999999 0.048575291700000002 -6.5049999999999999  -0.79917499999999997 0.037031500000000002 -6.5049999999999999  -0.71422663330000002 0.020663891799999997 -6.5049999999999999  -0.62839160000000005 0.0085204118000000006 -6.5049999999999999  -0.54202406670000003 6.0440099999999998e-05 -6.5049999999999999  -0.4554365333 -0.0055199242999999995 -6.5049999999999999  -0.36900400000000005 -0.0092480200000000009 -6.5049999999999999  -0.29509078329999999 -0.012436537700000002 -6.5049999999999999  -0.2212840875 -0.014272503300000001 -6.5049999999999999  -0.1475632875 -0.0151237605 -6.5049999999999999  -0.073806716699999997 -0.015365757300000001 -6.5049999999999999  0 -0.0153654 -6.5049999999999999 
 4 6 5 5 6 5 7 5 8 5 9 5 10 5 11 6
7 0 0  5 36 8  1.4336500000000001 0.64996799999999999 -6.5049999999999999  1.4336605 0.64972076670000001 -6.5049999999999999  1.4336178749999999 0.64945686670000002 -6.5049999999999999  1.4336992083 0.6492221333 -6.5049999999999999  1.4336128333 0.64895823330000002 -6.5049999999999999  1.43364 0.64871100000000004 -6.5049999999999999  1.4334536667 0.61781496670000002 -6.5049999999999999  1.4338860833000002 0.58679560000000008 -6.5049999999999999  1.4337184999999999 0.55586383750000001 -6.5049999999999999  1.4339196667 0.52489728330000007 -6.5049999999999999  1.4339999999999999 0.49393500000000001 -6.5049999999999999  1.4203730000000001 0.44235658329999999 -6.5049999999999999  1.4019439167000001 0.39482056250000003 -6.5049999999999999  1.3786762917000002 0.35127068750000001 -6.5049999999999999  1.3506378333 0.31178091669999997 -6.5049999999999999  1.3177400000000001 0.27629500000000001 -6.5049999999999999  1.2811151667 0.23680705000000002 -6.5049999999999999  1.238647625 0.2022839958 -6.5049999999999999  1.1916550832999999 0.172336775 -6.5049999999999999  1.1423406667 0.1464565333 -6.5049999999999999  1.0919700000000001 0.124249 -6.5049999999999999  1.0352280833 0.099204750000000008 -6.5049999999999999  0.97734481250000005 0.078821291700000004 -6.5049999999999999  0.91855039580000009 0.062216593699999996 -6.5049999999999999  0.85908024999999999 0.048575291700000002 -6.5049999999999999  0.79917499999999997 0.037031500000000002 -6.5049999999999999  0.71422663330000002 0.020663891799999997 -6.5049999999999999  0.62839160000000005 0.0085204118000000006 -6.5049999999999999  0.54202406670000003 6.0440099999999998e-05 -6.5049999999999999  0.4554365333 -0.0055199242999999995 -6.5049999999999999  0.36900400000000005 -0.0092480200000000009 -6.5049999999999999  0.29509078329999999 -0.012436537700000002 -6.5049999999999999  0.2212840875 -0.014272503300000001 -6.5049999999999999  0.1475632875 -0.0151237605 -6.5049999999999999  0.073806716699999997 -0.015365757300000001 -6.5049999999999999  0 -0.0153654 -6.5049999999999999 
 4 6 5 5 6 5 7 5 8 5 9 5 10 5 11 6
1 -1.4336500000000001 0.64996799999999999 -6.5049999999999999 1 0 0 
7 1 0  5 6 2  0 -1.4336500000000012 0.44996799999999954  1 1.6261605900786513 -1.6018359687478967 0.50133159091572177  0.99999999999999123 3.197537687201788 -1.3597569987336706 0.54529808698484217  1.00000000000002 3.163340737824532 -1.6307640784352895 0.54895174812063019  0.9999999999999809 5.6480191182691533 -0.70777342625966599 0.62409523622375362  1.0000000000000084 6.5049999999999999 -5.48064198191422e-16 0.64999999999999991  1
 0 6 1 6
7 1 0  5 6 2  0 -1.2702642757100887e-15 -0.2153654000000004  1 1.6301107356496369 -1.0892856285694023e-15 -0.48063406919001683  0.99999999999999123 3.2616899716505454 -9.0814394513853924e-16 -0.34829923223785531  1.00000000000002 3.0108044478154201 -9.3599783364924434e-16 -0.51558946287975504  0.9999999999999809 5.8048915685398486 -6.2579184822554488e-16 -0.26361891182622504  1.0000000000000084 6.4756682999999997 -5.5132067106056179e-16 -0.17298380000000002  1
 0 6 1 6
7 0 0  5 36 8  6.5049999999999999 -5.48064198191422e-16 0.64999999999999991  6.5049999999999999 -5.48064198191422e-16 0.64999999999999991  6.5049999999999999 -5.48064198191422e-16 0.64999999999999991  6.5049999999999999 -5.48064198191422e-16 0.64999999999999991  6.5049999999999999 -5.48064198191422e-16 0.64999999999999991  6.5049999999999999 -5.48064198191422e-16 0.64999999999999991  6.5049999999999999 -5.48064198191422e-16 0.61282594999999995  6.5049999999999999 -5.48064198191422e-16 0.57565721250000013  6.5049999999999999 -5.48064198191422e-16 0.53847607920000007  6.5049999999999999 -5.48064198191422e-16 0.50131171670000008  6.5049999999999999 -5.48064198191422e-16 0.46413599999999994  6.5049999999999999 -5.48064198191422e-16 0.42103916670000002  6.5049999999999999 -5.48064198191422e-16 0.37789566670000002  6.5049999999999999 -5.48064198191422e-16 0.33463570830000006  6.5049999999999999 -5.48064198191422e-16 0.2913353333  6.5049999999999999 -5.48064198191422e-16 0.24795600000000001  6.5049999999999999 -5.48064198191422e-16 0.21525483329999995  6.5049999999999999 -5.48064198191422e-16 0.18255970830000001  6.5049999999999999 -5.48064198191422e-16 0.14975604170000001  6.5049999999999999 -5.48064198191422e-16 0.11698966669999999  6.5049999999999999 -5.48064198191422e-16 0.084145999999999999  6.5049999999999999 -5.48064198191422e-16 0.057401949999999979  6.5049999999999999 -5.48064198191422e-16 0.030663212499999981  6.5049999999999999 -5.48064198191422e-16 0.0039120791999999738  6.5049999999999999 -5.48064198191422e-16 -0.022822283300000024  6.5049999999999999 -5.48064198191422e-16 -0.049568000000000029  6.5049999999999999 -5.48064198191422e-16 -0.065376400000000001  6.5049999999999999 -5.48064198191422e-16 -0.081184800000000001  6.5049999999999999 -5.48064198191422e-16 -0.096993200000000016  6.5049999999999999 -5.48064198191422e-16 -0.1128016  6.5049999999999999 -5.48064198191422e-16 -0.12861  6.5049717682999999 -5.4806733253975843e-16 -0.14198959330000002  6.5022298991999996 -5.4837174116029129e-16 -0.15311614500000001  6.4962763716999996 -5.4903271549111519e-16 -0.1619915821  6.48749004 -5.5000819426664854e-16 -0.16861366500000002  6.4756682999999997 -5.5132067106056179e-16 -0.17298380000000002 
 4 6 5 5 6 5 7 5 8 5 9 5 10 5 11 6
7 1 0  5 6 2  0 1.4336500000000008 0.44996799999999954  1 1.6261605900786513 1.6018359687478962 0.50133159091572177  0.99999999999999123 3.197537687201788 1.3597569987336702 0.54529808698484217  1.00000000000002 3.163340737824532 1.630764078435289 0.54895174812063019  0.9999999999999809 5.6480191182691533 0.70777342625966544 0.62409523622375362  1.0000000000000084 6.5049999999999999 1.0477058897466628e-32 0.64999999999999991  1
 0 6 1 6
Polygon3D 0
PolygonOnTriangulations 11
8 1 3 4 5 6 7 8 2 
p 0.28680002 1 4 6.33333333333333 6.80583333333333 7.24333333333333 7.89958333333333 8.88395833333333 9.94197916666667 11 
8 1 9 10 11 12 13 14 15 
p 0.65050002 1 4 6.33333333333333 6.80583333333333 7.24333333333333 7.89958333333333 8.88395833333333 9.94197916666667 11 
8 9 10 11 12 13 14 15 2 
p 0.28680002 1 4 6.33333333333333 6.80583333333333 7.24333333333333 7.89958333333333 8.88395833333333 9.94197916666667 11 
8 1 9 10 11 12 13 14 15 
p 0.65050002 1 4 6.33333333333333 6.80583333333333 7.24333333333333 7.89958333333333 8.88395833333333 9.94197916666667 11 
2 1 9 
p 0.28680002 1 0 2.8673 
8 1 3 4 5 6 7 8 2 
p 0.65050002 1 0 0.27 0.46683 0.6144525 0.7663275 0.9182025 0.95910125 1 
4 15 17 18 16 
p 0.65050002 1 0 0.333333333333333 0.666666666666667 1 
4 15 16 17 18 
p 0.761601513 1 0 0.333333333333333 0.666666666666667 1 
5 2 19 20 21 16 
p 0.3291936 1 4 7.11111111111111 10.2222222222222 10.6111111111111 11 
5 2 19 20 21 18 
p 0.65050002 1 4 7.11111111111111 10.2222222222222 10.6111111111111 11 
8 1 3 4 5 6 7 8 2 
p 0.65050002 1 0 0.27 0.46683 0.6144525 0.7663275 0.9182025 0.95910125 1 
Surfaces 3
1 0 0 -6.5049999999999999 0 0 1 1 0 -0 -0 1 0 
9 1 0 0 0 5 5 36 6 8 2 0 -1.4336500000000012 0.44996799999999954  1 1.6261605900786513 -1.6018359687478967 0.50133159091572177  0.99999999999999123 3.197537687201788 -1.3597569987336706 0.54529808698484217  1.00000000000002 3.163340737824532 -1.6307640784352895 0.54895174812063019  0.9999999999999809 5.6480191182691533 -0.70777342625966599 0.62409523622375362  1.0000000000000084 6.5049999999999999 -5.48064198191422e-16 0.64999999999999991  1 
0 -1.4336605000000011 0.44972076669999955  1 1.6400156548996869 -1.596515654739741 0.49680307239596166  0.99999999999999123 3.1655248440155725 -1.3924568269312445 0.59018855957463812  1.00000000000002 3.1808046621826938 -1.5532909396702321 0.41139589970412355  0.9999999999999809 5.654846610439936 -0.71753119566173762 0.64265549515955556  1.0000000000000084 6.5049999999999999 -5.48064198191422e-16 0.64999999999999991  1 
0 -1.433617875000001 0.44945686669999957  1 1.6506584879977897 -1.5922532479624822 0.49177870525204603  0.99999999999999123 3.1411873334678044 -1.4188920682190418 0.63692979799464955  1.00000000000002 3.194328618841463 -1.492139575555754 0.27060102810993697  0.9999999999999809 5.6601234641615443 -0.72484600698083768 0.66143488236555736  1.0000000000000084 6.5049999999999999 -5.48064198191422e-16 0.64999999999999991  1 
0 -1.4336992083000011 0.44922213329999955  1 1.6576040194166746 -1.5873960554461539 0.48630597029020578  0.99999999999999123 3.1243290671000779 -1.4407978495894476 0.68565925643462255  1.00000000000002 3.2044356421761373 -1.4467997269838779 0.12641574118463941  0.9999999999999809 5.6632372560436925 -0.72967269820712544 0.68044642465747673  1.0000000000000084 6.5049999999999999 -5.48064198191422e-16 0.64999999999999991  1 
0 -1.4336128333000011 0.44895823329999957  1 1.661460468803355 -1.5837538230348516 0.48029503278954838  0.99999999999999123 3.1157743827622624 -1.4567026640898446 0.73625732176641601  1.00000000000002 3.2097596991925323 -1.4177336596546268 -0.020999411630545545  0.9999999999999809 5.6651076542439549 -0.73206850766754095 0.69967203886878782  1.0000000000000084 6.5049999999999999 -5.48064198191422e-16 0.64999999999999991  1 
0 -1.4336400000000011 0.44871099999999958  1 1.6617199495650541 -1.580153159181267 0.47383155703797997  0.99999999999999123 3.1145446090069875 -1.4671701117791915 0.78877811687612887  1.00000000000002 3.2117648502985281 -1.4047569944934635 -0.17173786500016977  0.9999999999999809 5.6649275028909392 -0.73198055176979504 0.71912076249112344  1.0000000000000084 6.5049999999999999 -5.48064198191422e-16 0.64999999999999991  1 
0 -1.4334536667000011 0.41781496669999957  1 1.6585846326587925 -1.5873496118654769 0.44276327840713481  0.99999999999999123 3.1238627684672795 -1.436901258698742 0.70845138408142261  1.00000000000002 3.200691534143417 -1.4450909520432809 -0.069881705908850025  0.9999999999999809 5.6712707573050887 -0.70653745235000698 0.67022669391364287  1.0000000000000084 6.5049999999999999 -5.48064198191422e-16 0.61282594999999995  1 
0 -1.4338860833000013 0.38679559999999963  1 1.6595678374105531 -1.5935105282194739 0.41184681055280242  0.99999999999999123 3.1279079330880668 -1.4073680420109922 0.62790277079899581  1.00000000000002 3.1931656606434964 -1.4849597779038357 0.032247032264193502  0.9999999999999809 5.6763290500484702 -0.68134175331416669 0.62121033938316328  1.0000000000000084 6.5049999999999999 -5.48064198191422e-16 0.57565721250000013  1 
0 -1.433718500000001 0.35586383749999956  1 1.6562673519558917 -1.5989257401417531 0.38111319384492054  0.99999999999999123 3.1355009246239662 -1.3760091594904507 0.54695823996489745  1.00000000000002 3.1843861418390853 -1.5264086617504995 0.13481421887590461  0.9999999999999809 5.6815370619686911 -0.65574048327470236 0.57189117823854485  1.0000000000000084 6.5049999999999999 -5.48064198191422e-16 0.53847607920000007  1 
0 -1.4339196667000011 0.32489728329999962  1 1.6563823641089357 -1.5956038422640375 0.35130442637470416  0.99999999999999123 3.1404393442778584 -1.3579500750749196 0.46454694270028657  1.00000000000002 3.1768506331851296 -1.5580419941652228 0.23854962743965119  0.9999999999999809 5.6862198210563522 -0.63374786732810706 0.52215929713737808  1.0000000000000084 6.5049999999999999 -5.48064198191422e-16 0.50131171670000008  1 
0 -1.4340000000000011 0.29393499999999961  1 1.6549615753593554 -1.5830463167892219 0.32273366185676522  0.99999999999999123 3.1460611378467807 -1.3516439153948141 0.38041312976713093  1.00000000000002 3.1695626895920279 -1.5813337130453256 0.34359554092746541  0.9999999999999809 5.6906524727603918 -0.61488511446441096 0.47186993524852427  1.0000000000000084 6.5049999999999999 -5.48064198191422e-16 0.46413599999999994  1 
0 -1.4203730000000012 0.2423565832999996  1 1.6543010001077403 -1.5878646977942659 0.26866694328112467  0.99999999999999123 3.1514139096491514 -1.319176200135775 0.29492162054468651  1.00000000000002 3.1633116123061802 -1.6177118468824343 0.29727467040829747  0.9999999999999809 5.6955339521523092 -0.58208281977952747 0.42369275260883937  1.0000000000000084 6.5049999999999999 -5.48064198191422e-16 0.42103916670000002  1 
0 -1.4019439167000012 0.19482056249999963  1 1.6529544447898721 -1.5757951751485078 0.20738997531697517  0.99999999999999123 3.1581513603847027 -1.309221515999148 0.21690440791400878  1.00000000000002 3.1562571204977159 -1.6321216654491635 0.24661667123332054  0.9999999999999809 5.7001641661755968 -0.55484659535963288 0.3771188399210591  1.0000000000000084 6.5049999999999999 -5.48064198191422e-16 0.37789566670000002  1 
0 -1.3786762917000013 0.15127068749999961  1 1.6513939308634327 -1.5512129420956484 0.14423037418120646  0.99999999999999123 3.1648479458951071 -1.3106993214971123 0.14332111981541304  1.00000000000002 3.1494429169891927 -1.6287421029473848 0.19325025896208289  0.9999999999999809 5.7040934281434019 -0.53245635516036194 0.33211569582677336  1.0000000000000084 6.5049999999999999 -5.48064198191422e-16 0.33463570830000006  1 
0 -1.3506378333000011 0.11178091669999957  1 1.6495889183038299 -1.5153361784803252 0.083809016176971077  0.99999999999999123 3.1721147740355935 -1.3133602070342767 0.072812292976349433  1.00000000000002 3.1424309087803777 -1.6140695072311599 0.13803554405340746  0.9999999999999809 5.7078452140145055 -0.51245571560264769 0.28863532754181181  1.0000000000000084 6.5049999999999999 -5.48064198191422e-16 0.2913353333  1 
0 -1.3177400000000012 0.076294999999999613  1 1.6485877782998006 -1.47244327482729 0.031445616502008708  0.99999999999999123 3.1772036854590451 -1.3057907312814181 0.0022113386428762229  1.00000000000002 3.1372530970478119 -1.5927264448139689 0.082858098621042459  0.9999999999999809 5.7108181744699156 -0.49399606565377652 0.24649290312935487  1.0000000000000084 6.5049999999999999 -5.48064198191422e-16 0.24795600000000001  1 
0 -1.2811151667000011 0.036807049999999619  1 1.6479215232887923 -1.4481138556428514 -0.0034994963647348811  0.99999999999999123 3.1809789953420351 -1.2984903019296825 -0.0457928457522268  1.00000000000002 3.1334441910773672 -1.5752568959202087 0.034759734054665939  0.9999999999999809 5.7130192738963137 -0.4800079314307174 0.2139476736738174  1.0000000000000084 6.5049999999999999 -5.48064198191422e-16 0.21525483329999995  1 
0 -1.2386476250000011 0.0022839957999996052  1 1.6473025492318252 -1.4226122061336262 -0.035769638365498221  0.99999999999999123 3.1846854762215004 -1.2839957622221869 -0.09342962389256057  1.00000000000002 3.129708811905755 -1.5536449962363714 -0.012855623627513572  0.9999999999999809 5.7150670385870059 -0.46697828941107661 0.1818750704625462  1.0000000000000084 6.5049999999999999 -5.48064198191422e-16 0.18255970830000001  1 
0 -1.191655083300001 -0.027663225000000402  1 1.647347442976745 -1.3963140144476183 -0.066038995427979447  0.99999999999999123 3.1865489772697075 -1.2614172907843229 -0.13761261112971743  1.00000000000002 3.127735889142869 -1.528048309625252 -0.060263423193341832  0.9999999999999809 5.7165025871669242 -0.45419278287329146 0.15046818447744587  1.0000000000000084 6.5049999999999999 -5.48064198191422e-16 0.14975604170000001  1 
0 -1.1423406667000011 -0.053543466700000403  1 1.6475774673982779 -1.370604111802489 -0.094877881364486924  0.99999999999999123 3.1880576148411461 -1.2307317897625329 -0.17615568605734247  1.00000000000002 3.1255807663587865 -1.4947625153746946 -0.10553380430524842  0.9999999999999809 5.717968691823673 -0.44278516629992387 0.11847577837761357  1.0000000000000084 6.5049999999999999 -5.48064198191422e-16 0.11698966669999999  1 
0 -1.0919700000000012 -0.075751000000000415  1 1.6480023139640461 -1.3444320999488228 -0.12362866978542278  0.99999999999999123 3.1885134010722003 -1.1936918518813693 -0.20482326247385416  1.00000000000002 3.1246341193658602 -1.4560281673125137 -0.14826823786040147  0.9999999999999809 5.7189052827105282 -0.43053800840199119 0.085556435087671065  1.0000000000000084 6.5049999999999999 -5.48064198191422e-16 0.084145999999999999  1 
0 -1.0352280833000012 -0.10079525000000041  1 1.6490913169205279 -1.2749655484198994 -0.18298146793115833  0.99999999999999123 3.1883150231899009 -1.1628015026179599 -0.22955541537812463  1.00000000000002 3.1241794214772818 -1.4051825514982024 -0.21350942052349295  0.9999999999999809 5.7197360679734048 -0.42458641474270081 0.061984610291792329  1.0000000000000084 6.5049999999999999 -5.48064198191422e-16 0.057401949999999979  1 
0 -0.97734481250000138 -0.12117870830000041  1 1.6496855449783792 -1.2023944417340386 -0.23424379207629414  0.99999999999999123 3.1878088681107997 -1.1212928776316518 -0.24116178483719211  1.00000000000002 3.1237792237800042 -1.344826174344848 -0.27565819302906774  0.9999999999999809 5.7204919344010952 -0.42061941833535399 0.036330884320337174  1.0000000000000084 6.5049999999999999 -5.48064198191422e-16 0.030663212499999981  1 
0 -0.91855039580000142 -0.13778340630000041  1 1.6509024847804952 -1.12534436243289 -0.27947580143931228  0.99999999999999123 3.1871135887629252 -1.0738407105494425 -0.24270306234480629  1.00000000000002 3.123363208447222 -1.2801590008609163 -0.32939027481774275  0.9999999999999809 5.7214928671410936 -0.41442427512437563 0.0078552946102686382  1.0000000000000084 6.5049999999999999 -5.48064198191422e-16 0.0039120791999999738  1 
0 -0.85908025000000132 -0.1514247083000004  1 1.6514602330757429 -1.046060138107104 -0.31872905948094205  0.99999999999999123 3.18667973843873 -1.0249094414255635 -0.24049491850395333  1.00000000000002 3.1223307902143023 -1.2129119277871387 -0.37172468958898514  0.9999999999999809 5.722441859665591 -0.40365989959986359 -0.02267260671769409  1.0000000000000084 6.5049999999999999 -5.48064198191422e-16 -0.022822283300000024  1 
0 -0.7991750000000013 -0.1629685000000004  1 1.6519135392646134 -0.96382482572027139 -0.34987705197804536  0.99999999999999123 3.1866547085711132 -0.97923623780916069 -0.24460115073122723  1.00000000000002 3.1212995352044639 -1.1458402899320621 -0.40215091141189735  0.9999999999999809 5.7234166955905161 -0.38520404523873769 -0.052585896625352013  1.0000000000000084 6.5049999999999999 -5.48064198191422e-16 -0.049568000000000029  1 
0 -0.71422663330000136 -0.1793361082000004  1 1.6532142396598908 -0.87146009976235372 -0.38610470439916605  0.99999999999999123 3.1854904230160579 -0.8446779310542526 -0.27223886617574689  1.00000000000002 3.1203850557957349 -1.0505829071685253 -0.44838167077727331  0.9999999999999809 5.7245168752795514 -0.38064671977314096 -0.094033715039109275  1.0000000000000084 6.5049999999999999 -5.48064198191422e-16 -0.065376400000000001  1 
0 -0.62839160000000138 -0.19147958820000041  1 1.65276556236214 -0.77264328213728506 -0.41149215631879033  0.99999999999999123 3.1878638208645604 -0.72093941709612885 -0.2973931091787978  1.00000000000002 3.1170662231573569 -0.94555049467549368 -0.4740559497120384  0.9999999999999809 5.7259815427224083 -0.36894436680991155 -0.13694212995821936  1.0000000000000084 6.5049999999999999 -5.48064198191422e-16 -0.081184800000000001  1 
0 -0.54202406670000136 -0.1999395599000004  1 1.6537006487902617 -0.67128593549879101 -0.42920032205706654  0.99999999999999123 3.1865541762189493 -0.59952302374827615 -0.31822523274111397  1.00000000000002 3.1165914943536075 -0.83911789461617359 -0.48664338221706044  0.9999999999999809 5.7265595045316777 -0.34924188084883595 -0.1763952236106239  1.0000000000000084 6.5049999999999999 -5.48064198191422e-16 -0.096993200000000016  1 
0 -0.45543653330000128 -0.20551992430000041  1 1.6532859898246155 -0.57072991871383538 -0.44168678900283492  0.99999999999999123 3.1889922534492792 -0.47187731874243499 -0.33473722304513903  1.00000000000002 3.113408698752695 -0.74107517023063907 -0.49192434676192703  0.9999999999999809 5.7279643163112564 -0.31967883265540986 -0.2080588414311749  1.0000000000000084 6.5049999999999999 -5.48064198191422e-16 -0.1128016  1 
0 -0.36900400000000133 -0.20924802000000042  1 1.6535793351660395 -0.47617037434290554 -0.4509782640107739  0.99999999999999123 3.1886894664401888 -0.32679800642482215 -0.34646950335365834  1.00000000000002 3.1128337072765428 -0.6608873869721692 -0.49623379649899363  0.9999999999999809 5.7285586049778381 -0.27929861676234574 -0.22746335729925196  1.0000000000000084 6.5049999999999999 -5.48064198191422e-16 -0.12861  1 
0 -0.29509078330000127 -0.2124365377000004  1 1.6533430786054526 -0.37671583850670476 -0.46396505674457589  0.99999999999999123 3.1902895585564552 -0.27594462061656733 -0.34219343723599083  1.00000000000002 3.1104776588263099 -0.50749009570684289 -0.51075007568215924  0.9999999999999809 5.7294891659970224 -0.23921026685059071 -0.25242810944966859  1.0000000000000084 6.5049717682999999 -5.4806733253975843e-16 -0.14198959330000002  1 
0 -0.22128408750000128 -0.21427250330000042  1 1.6512550117906617 -0.28151063542080246 -0.46833765764586544  0.99999999999999123 3.1961115594321829 -0.21220986805640826 -0.35315295047567047  1.00000000000002 3.1025997536493417 -0.36904437927938805 -0.50514281738321021  0.9999999999999809 5.735304295172309 -0.18776020592975087 -0.27032296455033022  1.0000000000000084 6.5022298991999996 -5.4837174116029129e-16 -0.15311614500000001  1 
0 -0.14756328750000128 -0.2151237605000004  1 1.6475625206719269 -0.18878432519520197 -0.46909048659368391  0.99999999999999123 3.2089504030233806 -0.14032299201629181 -0.36658189825507032  1.00000000000002 3.0842817660168516 -0.24202588267923317 -0.49397776708614699  0.9999999999999809 5.7492010389608916 -0.12781701365559173 -0.27940640413322615  1.0000000000000084 6.4962763716999996 -5.4903271549111519e-16 -0.1619915821  1 
0 -0.07380671670000126 -0.2153657573000004  1 1.6406977747402305 -0.096338544669297796 -0.47140320111980222  0.99999999999999123 3.2291746811163033 -0.065888576133830257 -0.3693901671607549  1.00000000000002 3.0557613770603251 -0.12226349886069415 -0.49260494439257202  0.9999999999999809 5.7713707162768566 -0.063142140712637559 -0.27765152437508905  1.0000000000000084 6.48749004 -5.5000819426664854e-16 -0.16861366500000002  1 
0 -1.2702642757100887e-15 -0.2153654000000004  1 1.6301107356496369 -1.0892856285694023e-15 -0.48063406919001683  0.99999999999999123 3.2616899716505454 -9.0814394513853924e-16 -0.34829923223785531  1.00000000000002 3.0108044478154201 -9.3599783364924434e-16 -0.51558946287975504  0.9999999999999809 5.8048915685398486 -6.2579184822554488e-16 -0.26361891182622504  1.0000000000000084 6.4756682999999997 -5.5132067106056179e-16 -0.17298380000000002  1 

4 6
5 5
6 5
7 5
8 5
9 5
10 5
11 6

0 6
1 6

9 1 0 0 0 5 5 36 6 8 2 0 1.4336500000000008 0.44996799999999954  1 1.6261605900786513 1.6018359687478962 0.50133159091572177  0.99999999999999123 3.197537687201788 1.3597569987336702 0.54529808698484217  1.00000000000002 3.163340737824532 1.630764078435289 0.54895174812063019  0.9999999999999809 5.6480191182691533 0.70777342625966544 0.62409523622375362  1.0000000000000084 6.5049999999999999 1.0477058897466628e-32 0.64999999999999991  1 
0 1.4336605000000007 0.44972076669999955  1 1.6400156548996869 1.5965156547397406 0.49680307239596166  0.99999999999999123 3.1655248440155725 1.3924568269312441 0.59018855957463812  1.00000000000002 3.1808046621826938 1.5532909396702317 0.41139589970412355  0.9999999999999809 5.654846610439936 0.71753119566173706 0.64265549515955556  1.0000000000000084 6.5049999999999999 1.0477058897466628e-32 0.64999999999999991  1 
0 1.4336178750000006 0.44945686669999957  1 1.6506584879977897 1.5922532479624818 0.49177870525204603  0.99999999999999123 3.1411873334678044 1.4188920682190413 0.63692979799464955  1.00000000000002 3.194328618841463 1.4921395755557536 0.27060102810993697  0.9999999999999809 5.6601234641615443 0.72484600698083712 0.66143488236555736  1.0000000000000084 6.5049999999999999 1.0477058897466628e-32 0.64999999999999991  1 
0 1.4336992083000006 0.44922213329999955  1 1.6576040194166746 1.5873960554461535 0.48630597029020578  0.99999999999999123 3.1243290671000779 1.4407978495894471 0.68565925643462255  1.00000000000002 3.2044356421761373 1.4467997269838775 0.12641574118463941  0.9999999999999809 5.6632372560436925 0.72967269820712488 0.68044642465747673  1.0000000000000084 6.5049999999999999 1.0477058897466628e-32 0.64999999999999991  1 
0 1.4336128333000007 0.44895823329999957  1 1.661460468803355 1.5837538230348511 0.48029503278954838  0.99999999999999123 3.1157743827622624 1.4567026640898442 0.73625732176641601  1.00000000000002 3.2097596991925323 1.4177336596546264 -0.020999411630545545  0.9999999999999809 5.6651076542439549 0.73206850766754039 0.69967203886878782  1.0000000000000084 6.5049999999999999 1.0477058897466628e-32 0.64999999999999991  1 
0 1.4336400000000007 0.44871099999999958  1 1.6617199495650541 1.5801531591812665 0.47383155703797997  0.99999999999999123 3.1145446090069875 1.4671701117791911 0.78877811687612887  1.00000000000002 3.2117648502985281 1.404756994493463 -0.17173786500016977  0.9999999999999809 5.6649275028909392 0.73198055176979449 0.71912076249112344  1.0000000000000084 6.5049999999999999 1.0477058897466628e-32 0.64999999999999991  1 
0 1.4334536667000006 0.41781496669999957  1 1.6585846326587925 1.5873496118654764 0.44276327840713481  0.99999999999999123 3.1238627684672795 1.4369012586987415 0.70845138408142261  1.00000000000002 3.200691534143417 1.4450909520432804 -0.069881705908850025  0.9999999999999809 5.6712707573050887 0.70653745235000642 0.67022669391364287  1.0000000000000084 6.5049999999999999 1.0018853354752077e-32 0.61282594999999995  1 
0 1.4338860833000009 0.38679559999999963  1 1.6595678374105531 1.5935105282194735 0.41184681055280242  0.99999999999999123 3.1279079330880668 1.4073680420109917 0.62790277079899581  1.00000000000002 3.1931656606434964 1.4849597779038353 0.032247032264193502  0.9999999999999809 5.6763290500484702 0.68134175331416613 0.62121033938316328  1.0000000000000084 6.5049999999999999 9.5607132936556335e-33 0.57565721250000013  1 
0 1.4337185000000006 0.35586383749999956  1 1.6562673519558917 1.5989257401417527 0.38111319384492054  0.99999999999999123 3.1355009246239662 1.3760091594904502 0.54695823996489745  1.00000000000002 3.1843861418390853 1.5264086617504991 0.13481421887590461  0.9999999999999809 5.6815370619686911 0.6557404832747018 0.57189117823854485  1.0000000000000084 6.5049999999999999 9.1024204425278003e-33 0.53847607920000007  1 
0 1.4339196667000007 0.32489728329999962  1 1.6563823641089357 1.5956038422640371 0.35130442637470416  0.99999999999999123 3.1404393442778584 1.3579500750749192 0.46454694270028657  1.00000000000002 3.1768506331851296 1.5580419941652224 0.23854962743965119  0.9999999999999809 5.6862198210563522 0.63374786732810651 0.52215929713737808  1.0000000000000084 6.5049999999999999 8.6443343074698004e-33 0.50131171670000008  1 
0 1.4340000000000006 0.29393499999999961  1 1.6549615753593554 1.5830463167892215 0.32273366185676522  0.99999999999999123 3.1460611378467807 1.3516439153948137 0.38041312976713093  1.00000000000002 3.1695626895920279 1.5813337130453251 0.34359554092746541  0.9999999999999809 5.6906524727603918 0.61488511446441041 0.47186993524852427  1.0000000000000084 6.5049999999999999 8.1861082210916421e-33 0.46413599999999994  1 
0 1.4203730000000008 0.2423565832999996  1 1.6543010001077403 1.5878646977942654 0.26866694328112467  0.99999999999999123 3.1514139096491514 1.3191762001357745 0.29492162054468651  1.00000000000002 3.1633116123061802 1.6177118468824339 0.29727467040829747  0.9999999999999809 5.6955339521523092 0.58208281977952692 0.42369275260883937  1.0000000000000084 6.5049999999999999 7.6548987378229366e-33 0.42103916670000002  1 
0 1.4019439167000007 0.19482056249999963  1 1.6529544447898721 1.5757951751485073 0.20738997531697517  0.99999999999999123 3.1581513603847027 1.3092215159991476 0.21690440791400878  1.00000000000002 3.1562571204977159 1.632121665449163 0.24661667123332054  0.9999999999999809 5.7001641661755968 0.55484659535963232 0.3771188399210591  1.0000000000000084 6.5049999999999999 7.1231140430666399e-33 0.37789566670000002  1 
0 1.3786762917000008 0.15127068749999961  1 1.6513939308634327 1.551212942095648 0.14423037418120646  0.99999999999999123 3.1648479458951071 1.3106993214971119 0.14332111981541304  1.00000000000002 3.1494429169891927 1.6287421029473843 0.19325025896208289  0.9999999999999809 5.7040934281434019 0.53245635516036138 0.33211569582677336  1.0000000000000084 6.5049999999999999 6.5898938877033984e-33 0.33463570830000006  1 
0 1.3506378333000006 0.11178091669999957  1 1.6495889183038299 1.5153361784803248 0.083809016176971077  0.99999999999999123 3.1721147740355935 1.3133602070342763 0.072812292976349433  1.00000000000002 3.1424309087803777 1.6140695072311595 0.13803554405340746  0.9999999999999809 5.7078452140145055 0.51245571560264713 0.28863532754181181  1.0000000000000084 6.5049999999999999 6.0561755592829369e-33 0.2913353333  1 
0 1.3177400000000008 0.076294999999999613  1 1.6485877782998006 1.4724432748272895 0.031445616502008708  0.99999999999999123 3.1772036854590451 1.3057907312814176 0.0022113386428762229  1.00000000000002 3.1372530970478119 1.5927264448139684 0.082858098621042459  0.9999999999999809 5.7108181744699156 0.49399606565377596 0.24649290312935487  1.0000000000000084 6.5049999999999999 5.5214839946747777e-33 0.24795600000000001  1 
0 1.2811151667000007 0.036807049999999619  1 1.6479215232887923 1.448113855642851 -0.0034994963647348811  0.99999999999999123 3.1809789953420351 1.2984903019296821 -0.0457928457522268  1.00000000000002 3.1334441910773672 1.5752568959202082 0.034759734054665939  0.9999999999999809 5.7130192738963137 0.48000793143071685 0.2139476736738174  1.0000000000000084 6.5049999999999999 5.118410995225631e-33 0.21525483329999995  1 
0 1.2386476250000007 0.0022839957999996052  1 1.6473025492318252 1.4226122061336257 -0.035769638365498221  0.99999999999999123 3.1846854762215004 1.2839957622221865 -0.09342962389256057  1.00000000000002 3.129708811905755 1.553644996236371 -0.012855623627513572  0.9999999999999809 5.7150670385870059 0.46697828941107605 0.1818750704625462  1.0000000000000084 6.5049999999999999 4.7154124654785332e-33 0.18255970830000001  1 
0 1.1916550833000006 -0.027663225000000402  1 1.647347442976745 1.3963140144476178 -0.066038995427979447  0.99999999999999123 3.1865489772697075 1.2614172907843224 -0.13761261112971743  1.00000000000002 3.127735889142869 1.5280483096252515 -0.060263423193341832  0.9999999999999809 5.7165025871669242 0.4541927828732909 0.15046818447744587  1.0000000000000084 6.5049999999999999 4.3110760572184637e-33 0.14975604170000001  1 
0 1.1423406667000007 -0.053543466700000403  1 1.6475774673982779 1.3706041118024885 -0.094877881364486924  0.99999999999999123 3.1880576148411461 1.2307317897625325 -0.17615568605734247  1.00000000000002 3.1255807663587865 1.4947625153746942 -0.10553380430524842  0.9999999999999809 5.717968691823673 0.44278516629992332 0.11847577837761357  1.0000000000000084 6.5049999999999999 3.907199303416725e-33 0.11698966669999999  1 
0 1.0919700000000008 -0.075751000000000415  1 1.6480023139640461 1.3444320999488224 -0.12362866978542278  0.99999999999999123 3.1885134010722003 1.1936918518813688 -0.20482326247385416  1.00000000000002 3.1246341193658602 1.4560281673125133 -0.14826823786040147  0.9999999999999809 5.7189052827105282 0.43053800840199064 0.085556435087671065  1.0000000000000084 6.5049999999999999 3.5023698558582973e-33 0.084145999999999999  1 
0 1.0352280833000007 -0.10079525000000041  1 1.6490913169205279 1.274965548419899 -0.18298146793115833  0.99999999999999123 3.1883150231899009 1.1628015026179594 -0.22955541537812463  1.00000000000002 3.1241794214772818 1.4051825514982019 -0.21350942052349295  0.9999999999999809 5.7197360679734048 0.42458641474270026 0.061984610291792329  1.0000000000000084 6.5049999999999999 3.1727239887914825e-33 0.057401949999999979  1 
0 0.97734481250000083 -0.12117870830000041  1 1.6496855449783792 1.2023944417340382 -0.23424379207629414  0.99999999999999123 3.1878088681107997 1.1212928776316513 -0.24116178483719211  1.00000000000002 3.1237792237800042 1.3448261743448475 -0.27565819302906774  0.9999999999999809 5.7204919344010952 0.42061941833535343 0.036330884320337174  1.0000000000000084 6.5049999999999999 2.8431436033427772e-33 0.030663212499999981  1 
0 0.91855039580000086 -0.13778340630000041  1 1.6509024847804952 1.1253443624328896 -0.27947580143931228  0.99999999999999123 3.1871135887629252 1.0738407105494421 -0.24270306234480629  1.00000000000002 3.123363208447222 1.2801590008609158 -0.32939027481774275  0.9999999999999809 5.7214928671410936 0.41442427512437507 0.0078552946102686382  1.0000000000000084 6.5049999999999999 2.513410427862682e-33 0.0039120791999999738  1 
0 0.85908025000000077 -0.1514247083000004  1 1.6514602330757429 1.0460601381071035 -0.31872905948094205  0.99999999999999123 3.18667973843873 1.0249094414255631 -0.24049491850395333  1.00000000000002 3.1223307902143023 1.2129119277871383 -0.37172468958898514  0.9999999999999809 5.722441859665591 0.40365989959986304 -0.02267260671769409  1.0000000000000084 6.5049999999999999 2.1838839684524195e-33 -0.022822283300000024  1 
0 0.79917500000000075 -0.1629685000000004  1 1.6519135392646134 0.96382482572027084 -0.34987705197804536  0.99999999999999123 3.1866547085711132 0.97923623780916014 -0.24460115073122723  1.00000000000002 3.1212995352044639 1.1458402899320617 -0.40215091141189735  0.9999999999999809 5.7234166955905161 0.38520404523873714 -0.052585896625352013  1.0000000000000084 6.5049999999999999 1.8542175577219997e-33 -0.049568000000000029  1 
0 0.7142266333000008 -0.1793361082000004  1 1.6532142396598908 0.87146009976235317 -0.38610470439916605  0.99999999999999123 3.1854904230160579 0.84467793105425204 -0.27223886617574689  1.00000000000002 3.1203850557957349 1.0505829071685249 -0.44838167077727331  0.9999999999999809 5.7245168752795514 0.38064671977314041 -0.094033715039109275  1.0000000000000084 6.5049999999999999 1.6593639837517511e-33 -0.065376400000000001  1 
0 0.62839160000000083 -0.19147958820000041  1 1.65276556236214 0.7726432821372845 -0.41149215631879033  0.99999999999999123 3.1878638208645604 0.7209394170961283 -0.2973931091787978  1.00000000000002 3.1170662231573569 0.94555049467549313 -0.4740559497120384  0.9999999999999809 5.7259815427224083 0.368944366809911 -0.13694212995821936  1.0000000000000084 6.5049999999999999 1.4645104097815023e-33 -0.081184800000000001  1 
0 0.54202406670000081 -0.1999395599000004  1 1.6537006487902617 0.67128593549879045 -0.42920032205706654  0.99999999999999123 3.1865541762189493 0.5995230237482756 -0.31822523274111397  1.00000000000002 3.1165914943536075 0.83911789461617303 -0.48664338221706044  0.9999999999999809 5.7265595045316777 0.3492418808488354 -0.1763952236106239  1.0000000000000084 6.5049999999999999 1.2696568358112534e-33 -0.096993200000000016  1 
0 0.45543653330000072 -0.20551992430000041  1 1.6532859898246155 0.57072991871383483 -0.44168678900283492  0.99999999999999123 3.1889922534492792 0.47187731874243444 -0.33473722304513903  1.00000000000002 3.113408698752695 0.74107517023063851 -0.49192434676192703  0.9999999999999809 5.7279643163112564 0.31967883265540931 -0.2080588414311749  1.0000000000000084 6.5049999999999999 1.0748032618410048e-33 -0.1128016  1 
0 0.36900400000000078 -0.20924802000000042  1 1.6535793351660395 0.47617037434290499 -0.4509782640107739  0.99999999999999123 3.1886894664401888 0.3267980064248216 -0.34646950335365834  1.00000000000002 3.1128337072765428 0.66088738697216864 -0.49623379649899363  0.9999999999999809 5.7285586049778381 0.27929861676234519 -0.22746335729925196  1.0000000000000084 6.5049999999999999 8.7994968787075593e-34 -0.12861  1 
0 0.29509078330000071 -0.2124365377000004  1 1.6533430786054526 0.3767158385067042 -0.46396505674457589  0.99999999999999123 3.1902895585564552 0.27594462061656677 -0.34219343723599083  1.00000000000002 3.1104776588263099 0.50749009570684234 -0.51075007568215924  0.9999999999999809 5.7294891659970224 0.23921026685059016 -0.25242810944966859  1.0000000000000084 6.5049717682999999 3.134348336431728e-21 -0.14198959330000002  1 
0 0.22128408750000073 -0.21427250330000042  1 1.6512550117906617 0.2815106354208019 -0.46833765764586544  0.99999999999999123 3.1961115594321829 0.21220986805640771 -0.35315295047567047  1.00000000000002 3.1025997536493417 0.36904437927938749 -0.50514281738321021  0.9999999999999809 5.735304295172309 0.18776020592975032 -0.27032296455033022  1.0000000000000084 6.5022298991999996 3.0754296886925812e-19 -0.15311614500000001  1 
0 0.14756328750000072 -0.2151237605000004  1 1.6475625206719269 0.18878432519520141 -0.46909048659368391  0.99999999999999123 3.2089504030233806 0.14032299201629125 -0.36658189825507032  1.00000000000002 3.0842817660168516 0.24202588267923261 -0.49397776708614699  0.9999999999999809 5.7492010389608916 0.12781701365559117 -0.27940640413322615  1.0000000000000084 6.4962763716999996 9.6851729969316465e-19 -0.1619915821  1 
0 0.073806716700000718 -0.2153657573000004  1 1.6406977747402305 0.096338544669297255 -0.47140320111980222  0.99999999999999123 3.2291746811163033 0.065888576133829715 -0.3693901671607549  1.00000000000002 3.0557613770603251 0.12226349886069361 -0.49260494439257202  0.9999999999999809 5.7713707162768566 0.063142140712637018 -0.27765152437508905  1.0000000000000084 6.48749004 1.9439960752265573e-18 -0.16861366500000002  1 
0 7.2220007751866659e-16 -0.2153654000000004  1 1.6301107356496369 5.4122143037798042e-16 -0.48063406919001683  0.99999999999999123 3.2616899716505454 3.6007974694711714e-16 -0.34829923223785531  1.00000000000002 3.0108044478154201 3.8793363545782239e-16 -0.51558946287975504  0.9999999999999809 5.8048915685398486 7.772765003412293e-17 -0.26361891182622504  1.0000000000000084 6.4756682999999997 3.2564728691397811e-18 -0.17298380000000002  1 

4 6
5 5
6 5
7 5
8 5
9 5
10 5
11 6

0 6
1 6

Triangulations 3
16 15 1 0.28680002
-1.43365 0.649968000000001 -6.505 2.6687712369883e-16 -0.0153653999999993 -6.505 -1.40594454048148 0.412448655683128 -6.505 -1.34785173795684 0.312258655741433 -6.505 -1.26992407550245 0.231133141238001 -6.505 -1.11714049207609 0.135773418207067 -6.505 -0.833870180340218 0.044025234731016 -6.505 -0.394082927009659 -0.00810213487881201 -6.505 1.43365 0.649968000000001 -6.505 1.40594454048148 0.412448655683128 -6.505 1.34785173795684 0.312258655741433 -6.505 1.26992407550245 0.231133141238001 -6.505 1.11714049207609 0.135773418207067 -6.505 0.833870180340219 0.044025234731016 -6.505 0.394082927009659 -0.00810213487881201 -6.505 -1.20368667290425e-16 0.317301300000001 -6.505 -1.43365 0.649968000000001 2.22044604925031e-16 -0.0153653999999993 -1.40594454048148 0.412448655683128 -1.34785173795684 0.312258655741432 -1.26992407550245 0.231133141238001 -1.11714049207609 0.135773418207066 -0.833870180340219 0.0440252347310157 -0.394082927009659 -0.00810213487881232 1.43365 0.649968000000001 1.40594454048148 0.412448655683128 1.34785173795684 0.312258655741432 1.26992407550245 0.231133141238001 1.11714049207609 0.135773418207066 0.833870180340218 0.0440252347310157 0.394082927009659 -0.00810213487881232 -4.44089209850063e-16 0.317301300000001 1 5 6 1 6 7 16 7 8 1 3 4 5 1 4 1 7 16 1 16 9 8 2 16 15 14 16 14 9 16 13 9 14 12 11 9 10 9 11 12 9 13 15 16 2 
21 19 1 0.570173415
0 -1.43365 0.449968 6.505 -2.74032099095711e-16 0.649999999999999 1.98092892292892 -1.48171098275022 0.510741713120906 3.13707385249348 -1.37428305641704 0.546252356415255 4.01489342552515 -1.17201839635292 0.573584514791118 5.03045258162268 -0.807098423323603 0.605048480993933 6.06649267160459 -0.296834263216068 0.636720867352713 6.30524876905432 -0.147414068660439 0.643958400270071 0 -1.40594454048148 0.212448655683128 0 -1.34785173795684 0.112258655741432 0 -1.26992407550245 0.0311331412380007 0 -1.11714049207608 -0.0642265817929337 0 -0.833870180340217 -0.155974765268984 0 -0.394082927009658 -0.208102134878812 0 9.89077201217497e-16 -0.2153654 6.4756683 -3.46993823106302e-16 -0.1729838 2.37160830651042 -1.00696286098207e-15 -0.397691803899926 4.35903610341951 -7.8631405099122e-16 -0.35730792986787 6.505 -5.48064198191422e-16 0.229788048905756 6.50358381274824 -5.4822142656083e-16 -0.142363766539061 6.49413006455314 -5.49271003452351e-16 -0.16108011196234 4 0 4 1 4 0.27 4 0.46683 4 0.6144525 4 0.7663275 4 0.9182025 4 0.95910125 6.33333333333333 0 6.80583333333333 0 7.24333333333333 0 7.89958333333333 0 8.88395833333333 0 9.94197916666667 0 11 0 11 1 11 0.333333333333333 11 0.666666666666667 7.11111111111111 1 10.2222222222222 1 10.6111111111111 1 3 1 9 4 3 17 10 3 9 5 4 18 18 6 5 19 8 7 19 2 8 7 6 19 10 11 3 12 17 3 13 14 17 14 15 17 12 13 17 20 19 18 21 20 18 18 19 6 18 16 21 17 18 4 3 11 12 
21 19 1 0.67827539325
0 1.43365 0.449968 6.505 -2.74032099095711e-16 0.649999999999999 1.98092892292892 1.48171098275022 0.510741713120906 3.13707385249348 1.37428305641704 0.546252356415255 4.01489342552515 1.17201839635292 0.573584514791118 5.03045258162268 0.807098423323603 0.605048480993933 6.06649267160459 0.296834263216068 0.636720867352713 6.30524876905432 0.14741406866044 0.643958400270071 0 1.40594454048148 0.212448655683128 0 1.34785173795684 0.112258655741432 0 1.26992407550245 0.0311331412380007 0 1.11714049207609 -0.0642265817929337 0 0.83387018034022 -0.155974765268984 0 0.39408292700966 -0.208102134878812 0 9.89077201217497e-16 -0.2153654 2.37160830651042 -1.00696286098207e-15 -0.397691803899926 4.35903610341951 -7.8631405099122e-16 -0.35730792986787 6.4756683 -3.46993823106302e-16 -0.1729838 6.505 -5.48064198191422e-16 0.229788048905756 6.50358381274824 -5.4822142656083e-16 -0.142363766539061 6.49413006455314 -5.49271003452351e-16 -0.16108011196234 4 0 4 1 4 0.27 4 0.46683 4 0.6144525 4 0.7663275 4 0.9182025 4 0.95910125 6.33333333333333 0 6.80583333333333 0 7.24333333333333 0 7.89958333333333 0 8.88395833333333 0 9.94197916666667 0 11 0 11 0.333333333333333 11 0.666666666666667 11 1 7.11111111111111 1 10.2222222222222 1 10.6111111111111 1 3 1 9 4 3 16 10 3 9 5 4 17 17 6 5 19 8 7 19 2 8 7 6 19 10 11 3 12 16 3 13 14 16 14 15 16 12 13 16 20 19 17 21 20 17 17 19 6 17 18 21 16 17 4 3 11 12 

TShapes 20
Ve
1.00000000800623e-07
0 -1.43365 0.449968
0 0

0101100
*
Ve
1.00000002000918e-07
0 6.65356658657859e-16 -0.2153654
0 0

0101100
*
Ed
 1e-07 1 1 0
1  1 0 4 11
2  1 2 6 4 11
6  1 1 0
6  2 2 6
0

0101000
+20 6 -19 6 *
Ve
1.00000000800623e-07
0 1.43365 0.449968
0 0

0101100
*
Ed
 1e-07 1 1 0
1  2 0 4 11
2  2 3 6 4 11
6  3 1 0
6  4 3 6
0

0101000
+17 6 -19 6 *
Ed
 1e-10 1 1 0
1  3 0 0 2.8673
6  5 1 0
0

0101000
+20 6 -17 6 *
Wi

0101000
-18 0 +16 0 +15 0 *
Fa
0  1e-10 1 0
2  1
0101000
-14 0 *
Ve
1e-07
6.505 -2.74032099095711e-16 0.649999999999999
0 0

0101100
*
Ed
 1e-07 1 1 0
1  4 0 0 1
2  3 2 0 0 1
6  6 2 0
0

0101000
+20 0 -12 0 *
Ve
1.00000000145923e-07
6.4756683 -3.46993823106302e-16 -0.1729838
0 0

0101100
*
Ed
 1e-07 1 1 0
1  5 0 0 1
2  4 2 0 0 1
2  5 3 0 0 1
6  7 2 0
6  8 3 0
0

0101000
+19 0 -10 0 *
Ed
 1e-07 1 1 0
1  6 0 4 11
2  6 2 0 4 11
2  7 3 0 4 11
6  9 2 0
6  10 3 0
0

0101000
+12 0 -10 0 *
Wi

0101000
-11 0 +18 5 +9 0 -8 0 *
Fa
0  1e-07 2 0
2  2
0101000
+7 0 *
Ed
 1e-07 1 1 0
1  7 0 0 1
2  8 3 0 0 1
6  11 3 0
0

0101000
+17 0 -12 0 *
Wi

0101000
-5 0 +16 5 +9 0 -8 0 *
Fa
0  1e-07 3 0
2  3
0101000
+4 0 *
Sh

0101000
+13 5 -6 0 +3 0 *
Co

1100000
+2 0 *

+1 0 