DBRep_DrawableShape

CASCADE Topology V1, (c) Matra-Datavision
Locations 0
Curve2ds 27
1 0 0 1 0 
1 0 10 1 0 
1 30 0 0 -1 
1 10 0 0 1 
1 0 30 1 0 
1 0 -20 1 0 
1 0 10 1 0 
1 0 0 0 -1 
1 10 0 0 1 
1 0 0 0 1 
1 0 0 1 0 
1 30 0 0 1 
1 0 0 1 0 
1 0 0 1 0 
1 0 0 1 0 
1 0 0 0 1 
1 0 20 1 0 
1 30 0 0 1 
1 0 20 1 0 
1 0 -20 1 0 
1 0 0 1 0 
1 0 0 -1 0 
1 0 0 -0.4472135954999579 -0.8944271909999159 
1 30 0 0 -1 
1 0 0 0 1 
1 0 0 0 -1 
1 0 0 0 1 
Curves 14
1 10 0 0 0 0 1 
1 10 0 30 0 1 0 
1 0 0 30 0.4472135954999579 0.8944271909999159 0 
1 10 20 0 0 0 1 
1 10 0 0 -0 1 0 
1 0 0 0 1 0 -0 
1 0 0 30 1 0 -0 
1 0 0 0 0 0 1 
1 0 20 0 1 0 -0 
1 0 20 30 1 0 -0 
1 0 20 0 0 0 1 
1 0 0 0 -0.4472135954999579 -0.8944271909999159 0 
1 0 0 30 -0 1 0 
1 0 0 0 -0 1 0 
Polygon3D 0
PolygonOnTriangulations 0
Surfaces 7
1 10 0 0 1 0 -0 0 0 1 0 -1 0 
1 0 0 0 -0 1 0 0 0 1 1 0 -0 
1 0 0 30 0 0 1 1 0 -0 -0 1 0 
1 0 0 0 0.8944271909999159 -0.4472135954999579 0 0.4472135954999579 0.8944271909999159 0 -0 0 1 
1 0 20 0 -0 1 0 0 0 1 1 0 -0 
1 0 0 0 0 0 1 1 0 -0 -0 1 0 
1 0 0 0 1 0 -0 0 0 1 0 -1 0 
Triangulations 0

TShapes 38
Ve
1e-07
10 0 30
0 0

0101101
*
Ve
1e-07
10 0 0
0 0

0101101
*
Ed
 1e-07 1 1 0
1  1 0 0 30
2  1 1 0 0 30
2  2 2 0 0 30
0

0101000
-38 0 +37 0 *
Ve
1e-07
10 20 30
22.3606797749979 1 3 0
22.3606797749979 2 5 4 0
0 0

0101101
*
Ed
 1e-07 1 1 0
1  2 0 0 20
2  3 1 0 0 20
2  4 3 0 0 20
0

0101000
-35 0 +38 0 *
Ve
1e-07
10 20 0
0 0

0101101
*
Ed
 1e-07 1 1 0
1  4 0 0 30
2  6 1 0 0 30
2  7 5 0 0 30
0

0101000
-35 0 +33 0 *
Ed
 1e-07 1 1 0
1  5 0 0 20
2  8 1 0 0 20
2  9 6 0 0 20
0

0101000
-33 0 +37 0 *
Wi

0101000
-36 0 -34 0 +32 0 +31 0 *
Fa
0  1e-07 1 0

0111000
+30 0 *
Ve
1e-07
0 0 0
0 0

0101101
*
Ed
 1e-07 1 1 0
1  6 0 0 10
2  10 2 0 0 10
2  11 6 0 0 10
0

0101000
-37 0 +28 0 *
Ve
1e-07
0 0 30
0 1 3 0
0 2 5 4 0
0 0

0101101
*
Ed
 1e-07 1 1 0
1  7 0 0 10
2  12 2 0 0 10
2  13 3 0 0 10
0

0101000
-38 0 +26 0 *
Ed
 1e-07 1 1 0
1  8 0 0 30
2  14 7 0 0 30
2  15 2 0 0 30
0

0101000
-26 0 +28 0 *
Wi

0101000
-27 0 -36 0 +25 0 +24 0 *
Fa
0  1e-07 2 0

0111000
+23 0 *
Ve
1e-07
0 20 0
0 0

0101101
*
Ed
 1e-07 1 1 0
1  9 0 0 10
2  16 5 0 0 10
2  17 6 0 0 10
0

0101000
-33 0 +21 0 *
Ve
1e-07
0 20 30
0 0

0101101
*
Ed
 1e-07 1 1 0
1  10 0 0 10
2  18 5 0 0 10
2  19 3 0 0 10
0

0101000
-35 0 +19 0 *
Ed
 1e-07 1 1 0
1  11 0 0 30
2  20 7 0 0 30
2  21 5 0 0 30
0

0101000
-19 0 +21 0 *
Wi

0101000
-20 0 -32 0 +18 0 +17 0 *
Fa
0  1e-07 5 0

0111000
+16 0 *
Ed
 1e-07 1 1 0
1  12 0 -22.3606797749979 0
2  22 4 0 -22.3606797749979 0
2  23 6 0 -22.3606797749979 0
0

0101000
+33 0 -28 0 *
Wi

0101000
+14 0 +27 0 +31 0 *
Fa
0  1e-07 6 0

0111000
+13 0 *
Ed
 1e-07 1 1 0
1  13 0 0 20
2  24 7 0 0 20
2  25 3 0 0 20
0

0101000
-19 0 +26 0 *
Ed
 1e-07 1 1 0
1  14 0 0 20
2  26 7 0 0 20
2  27 6 0 0 20
0

0101000
-21 0 +28 0 *
Wi

0101000
-24 0 -11 0 +17 0 +10 0 *
Fa
0  1e-07 7 0

0111000
+9 0 *
Wi

0101000
-14 0 -20 0 -10 0 *
Fa
0  1e-07 6 0

0111000
+7 0 *
Sh

0101000
+29 0 -22 0 +15 0 -12 0 -8 0 -6 0 *
Ed
 1e-07 1 1 0
1  3 0 0 22.3606797749979
2  5 4 0 0 22.3606797749979
0

0101000
+26 0 -35 0 *
Wi

0101000
+32 0 -4 0 -24 0 -14 0 *
Fa
0  1e-07 4 0

0111000
+3 0 *
Co

1100000
+5 0 +2 0 *

+1 0 