DBRep_DrawableShape

CASCADE Topology V1, (c) Matra-Datavision
Locations 10
1
              1               0               0               0 
              0               1               0               0 
              0               0               1               0 
1
              1              -0               0              -0 
              0               1               0               0 
             -0               0               1              -0 
1
              1               0               0               0 
              0               1               0               0 
              0               0               1             100 
2  2 1 3 1 0
1
              1               0               0              -0 
              0               1               0              -0 
              0               0               1             -32 
2  2 1 3 1 5 1 0
2  5 -1 3 -1 2 -1 0
2  3 -1 2 -1 0
1
           -0.5 -0.866025403784439               0               0 
0.866025403784439            -0.5               0               0 
              0               0               1               0 
1
           -0.5 0.866025403784438               0               0 
-0.866025403784438            -0.5               0               0 
              0               0               1               0 
Curve2ds 0
Curves 8
1 -110 -10 100 -0 -0 -1 
1 110 -10 100 -0 -0 -1 
1 -110 -10 0 1 0 0 
1 110 10 100 -0 -0 -1 
1 110 -10 0 0 1 0 
1 -110 10 100 -0 -0 -1 
1 110 10 0 -1 0 0 
1 -110 10 0 0 -1 -0 
Polygon3D 0
PolygonOnTriangulations 17
2 3 4 
p 3.20000002 1 0 32 
2 1 2 
p 3.20000002 1 0 32 
2 2 4 
p 22.00000002 1 0 220 
2 1 3 
p 22.00000002 1 0 220 
2 1 2 
p 22.00000002 1 0 220 
2 3 4 
p 3.20000002 1 0 32 
2 1 2 
p 12.80000008 1 0 32 
2 2 4 
p 3.20000002 1 0 20 
2 1 3 
p 3.20000002 1 0 20 
2 2 3 
p 8.00000008 1 0 20 
2 1 2 
p 3.20000002 1 0 32 
2 2 4 
p 22.00000002 1 0 220 
2 1 3 
p 22.00000002 1 0 220 
2 3 4 
p 22.00000002 1 0 220 
2 1 3 
p 3.20000002 1 0 20 
2 2 4 
p 3.20000002 1 0 20 
2 4 1 
p 8.00000008 1 0 20 
Surfaces 5
1 -110 -10 100 0 -1 0 1 0 0 -0 0 1 
1 110 -10 100 1 0 0 -0 1 0 0 -0 1 
1 110 10 100 0 1 -0 -1 0 0 0 0 1 
1 -110 10 100 -1 -0 0 0 -1 -0 0 0 1 
1 -110 -10 100 0 0 -1 -1 0 -0 0 1 0 
Triangulations 5
4 2 1 0
-110 -10 100 -110 -10 68 110 -10 100 110 -10 68 0 0 0 -32 220 0 220 -32 1 2 3 4 3 2 
4 2 1 0
-110 10 100 -110 10 68 -110 -10 100 -110 -10 68 0 0 0 -32 20 0 20 -32 1 2 3 4 3 2 
4 2 1 0
110 -10 100 110 -10 68 110 10 100 110 10 68 0 0 0 -32 20 0 20 -32 1 2 3 4 3 2 
4 2 1 0
-110 -10 100 110 -10 100 110 10 100 -110 10 100 0 0 -220 0 -220 20 0 20 3 2 1 1 4 3 
4 2 1 0
110 10 100 110 10 68 -110 10 100 -110 10 68 0 0 0 -32 220 0 220 -32 1 2 3 4 3 2 

TShapes 25
Ve
1e-07
-110 -10 0
0 0

0101101
*
Ed
 1e-07 1 1 0
1  1 0 0 32
6  1 2 0
0

0101000
+25 4 -25 6 *
Ve
1e-07
110 -10 0
0 0

0101101
*
Ed
 1e-07 1 1 0
1  2 0 0 32
6  2 3 0
0

0101000
+23 4 -23 6 *
Ed
 1e-07 1 1 0
1  3 0 0 220
6  3 1 7
6  4 1 8
6  5 4 8
0

0101000
+25 0 -23 0 *
Wi

0101000
+24 0 -22 0 -21 4 +21 6 *
Fa
0  1e-07 1 0
2  1
0101000
+20 0 *
Ve
1e-07
110 10 0
0 0

0101101
*
Ed
 1e-07 1 1 0
1  4 0 0 32
6  6 3 0
6  7 5 0
0

0101000
+18 4 -18 6 *
Ed
 1e-07 1 1 0
1  5 0 0 20
6  8 3 7
6  9 3 8
6  10 4 8
0

0101000
+23 0 -18 0 *
Wi

0101000
+22 0 -17 0 -16 4 +16 6 *
Fa
0  1e-07 2 0
2  3
0101000
+15 0 *
Ve
1e-07
-110 10 0
0 0

0101101
*
Ed
 1e-07 1 1 0
1  6 0 0 32
6  11 2 0
0

0101000
+13 4 -13 6 *
Ed
 1e-07 1 1 0
1  7 0 0 220
6  12 5 7
6  13 5 8
6  14 4 8
0

0101000
+18 0 -13 0 *
Wi

0101000
+17 0 -12 0 -11 4 +11 6 *
Fa
0  1e-07 3 0
2  5
0101000
+10 0 *
Ed
 1e-07 1 1 0
1  8 0 0 20
6  15 2 8
6  16 2 7
6  17 4 8
0

0101000
+13 0 -25 0 *
Wi

0101000
+12 0 -24 0 -8 4 +8 6 *
Fa
0  1e-07 4 0
2  2
0101000
+7 0 *
Wi

0101100
+21 0 +16 0 +11 0 +8 0 *
Fa
0  1e-07 5 0
2  4
0101000
-5 4 *
Sh

0101000
-19 0 -14 0 -9 0 -6 0 +4 0 -4 5 *
So

0100000
-3 0 *
Co

0100000
+2 1 +2 9 +2 10 *

+1 0 